<svg width="30" height="30" viewBox="0 0 30 30" fill="none" xmlns="http://www.w3.org/2000/svg">
<path d="M6.25 27.5H23.75C25.1288 27.5 26.25 26.3788 26.25 25V11.25C26.25 10.9185 26.1183 10.6005 25.8839 10.3661C25.6495 10.1317 25.3315 10 25 10H21.25V8.75C21.25 5.30375 18.4462 2.5 15 2.5C11.5538 2.5 8.75 5.30375 8.75 8.75V10H5C4.66848 10 4.35054 10.1317 4.11612 10.3661C3.8817 10.6005 3.75 10.9185 3.75 11.25V25C3.75 26.3788 4.87125 27.5 6.25 27.5ZM11.25 8.75C11.25 6.6825 12.9325 5 15 5C17.0675 5 18.75 6.6825 18.75 8.75V10H11.25V8.75ZM6.25 12.5H8.75V15H11.25V12.5H18.75V15H21.25V12.5H23.75L23.7525 25H6.25V12.5Z" fill="#444444"/>
</svg>
